<svg id="Layer_1" xmlns="http://www.w3.org/2000/svg" width="512" height="512" viewBox="0 0 512 512"><path d="M32 0v512M64 0v512M96 0v512M128 0v512M160 0v512M192 0v512M224 0v512M256 0v512M288 0v512M320 0v512M352 0v512M384 0v512M416 0v512M448 0v512M480 0v512M0 32h512M0 64h512M0 96h512M0 128h512M0 160h512M0 192h512M0 224h512M0 256h512M0 288h512M0 320h512M0 352h512M0 384h512M0 416h512M0 448h512M0 480h512M0 0h512v512H0z" id="svgGrid" fill="none" stroke="#B35047"/><path d="M455.627 184.373C419.275 148.02 371.108 128 320 128H122.51l73.373-73.373-45.255-45.254L0 160l150.627 150.628 45.255-45.256L122.51 192H320c34.014 0 66.108 13.363 90.373 37.627C434.637 253.892 448 285.986 448 320s-13.363 66.108-37.627 90.373C386.108 434.637 354.014 448 320 448H192v64h128c51.108 0 99.275-20.021 135.627-56.373S512 371.108 512 320s-20.021-99.275-56.373-135.627z"/></svg>