<svg id="Layer_1" xmlns="http://www.w3.org/2000/svg" width="512" height="512" viewBox="0 0 512 512"><path d="M480 512V0m-32 512V0m-32 512V0m-32 512V0m-32 512V0m-32 512V0m-32 512V0m-32 512V0m-32 512V0m-32 512V0m-32 512V0m-32 512V0M96 512V0M64 512V0M32 512V0M0 32h512M0 64h512M0 96h512M0 128h512M0 160h512M0 192h512M0 224h512M0 256h512M0 288h512M0 320h512M0 352h512M0 384h512M0 416h512M0 448h512M0 480h512M0 0h512v512H0z" id="svgGrid" fill="none" stroke="#B35047"/><path d="M451.9 54.6L406.6 9.4 160 256l246.6 246.6 45.3-45.2L250.5 256 451.9 54.6zM64 480h64V32H64v448z"/></svg>