<svg width="512" height="512" viewBox="0 0 512 512" xmlns="http://www.w3.org/2000/svg"><g class="svgGrid" id="svgGrid" stroke="#B35047"><path d="M32 0v512M64 0v512M96 0v512M128 0v512M160 0v512M192 0v512M224 0v512M256 0v512M288 0v512M320 0v512M352 0v512M384 0v512M416 0v512M448 0v512M480 0v512M0 32h512M0 64h512M0 96h512M0 128h512M0 160h512M0 192h512M0 224h512M0 256h512M0 288h512M0 320h512M0 352h512M0 384h512M0 416h512M0 448h512M0 480h512"/><path fill="none" d="M0 0h512v512H0z"/></g><path d="M415.886 64a.953.953 0 0 1 .114.115v383.771a1.023 1.023 0 0 1-.114.114H96.114a.944.944 0 0 1-.114-.114V64.114a.885.885 0 0 1 .115-.114H32v384c0 35.2 28.8 64 64 64h320c35.2 0 64-28.8 64-64V64h-64.114zM128 160h64v64h-64zm96 0h160v64H224zm-96 96h64v64h-64zm96 0h160v64H224zm-96 96h64v64h-64zm96 0h160v64H224zm96-288V32c0-17.673-14.327-32-32-32h-64c-17.673 0-32 14.327-32 32v32h-64v64h256V64h-64zm-32 0h-64V32h64v32z"/></svg>