<svg id="Layer_1" xmlns="http://www.w3.org/2000/svg" width="512" height="512" viewBox="0 0 512 512"><path d="M32 0v512M64 0v512M96 0v512M128 0v512M160 0v512M192 0v512M224 0v512M256 0v512M288 0v512M320 0v512M352 0v512M384 0v512M416 0v512M448 0v512M480 0v512M0 32h512M0 64h512M0 96h512M0 128h512M0 160h512M0 192h512M0 224h512M0 256h512M0 288h512M0 320h512M0 352h512M0 384h512M0 416h512M0 448h512M0 480h512M0 0h512v512H0z" id="svgGrid" fill="none" stroke="#B35047"/><path d="M511 112L367 16l-112 96 144 96 112-96zM143 16L-1 112l112 96 144-96-112-96zm112 272l112 96 144-80-112-96-144 80zM-1 304l144 80 112-96-144-80-112 96zm256 26.1l-108.1 92.6L79 385.1V432l176 80 176-80v-46.9l-67.9 37.7L255 330.1z"/></svg>