<svg width="512" height="512" viewBox="0 0 512 512" xmlns="http://www.w3.org/2000/svg"><g class="svgGrid" id="svgGrid" stroke="#B35047"><path d="M32 0v512M64 0v512M96 0v512M128 0v512M160 0v512M192 0v512M224 0v512M256 0v512M288 0v512M320 0v512M352 0v512M384 0v512M416 0v512M448 0v512M480 0v512M0 32h512M0 64h512M0 96h512M0 128h512M0 160h512M0 192h512M0 224h512M0 256h512M0 288h512M0 320h512M0 352h512M0 384h512M0 416h512M0 448h512M0 480h512"/><path fill="none" d="M0 0h512v512H0z"/></g><path d="M0 278.205c0 23.199 2.17 44.19 6.511 62.967 4.339 18.777 10.348 35.092 18.026 48.946 7.678 13.854 17.442 26.039 29.293 36.554 11.85 10.516 24.703 19.112 38.556 25.788 13.853 6.675 29.668 12.099 47.444 16.273 17.776 4.173 35.928 7.094 54.455 8.764 18.527 1.669 38.89 2.503 61.089 2.503 22.366 0 42.814-.834 61.34-2.503 18.527-1.67 36.721-4.592 54.58-8.764s33.756-9.596 47.694-16.273c13.938-6.677 26.873-15.272 38.808-25.788 11.935-10.515 21.783-22.702 29.543-36.554 7.76-13.852 13.811-30.168 18.151-48.946s6.51-39.768 6.51-62.967c0-41.394-13.854-77.197-41.559-107.408 1.502-4.006 2.879-8.554 4.131-13.645 1.252-5.091 2.42-12.351 3.505-21.782s.668-20.321-1.252-32.673c-1.919-12.352-5.466-24.953-10.642-37.806l-3.755-.751c-2.671-.5-7.053-.375-13.145.376s-13.186 2.253-21.281 4.507c-8.095 2.253-18.527 6.593-31.296 13.019-12.769 6.426-26.247 14.479-40.435 24.16-24.368-6.676-57.834-10.015-100.396-10.015-42.396 0-75.778 3.339-100.147 10.015-14.188-9.681-27.75-17.734-40.685-24.16-12.935-6.426-23.242-10.766-30.92-13.019-7.677-2.254-14.855-3.714-21.531-4.382-6.677-.668-10.892-.876-12.644-.626-1.752.25-3.13.543-4.131.876-5.174 12.853-8.721 25.453-10.64 37.806-1.919 12.352-2.337 23.243-1.252 32.673 1.085 9.43 2.254 16.691 3.505 21.782 1.252 5.091 2.629 9.639 4.131 13.645C13.854 201.008 0 236.81 0 278.205zm62.842 62.842c0-24.035 10.933-46.068 32.798-66.097 6.509-6.01 14.104-10.557 22.783-13.646 8.679-3.088 18.485-4.84 29.418-5.258 10.933-.417 21.406-.334 31.421.251 10.014.584 22.366 1.377 37.054 2.378 14.688 1.002 27.374 1.502 38.056 1.502 10.683 0 23.368-.5 38.056-1.502 14.689-1.001 27.039-1.794 37.055-2.378 10.015-.585 20.487-.668 31.421-.251 10.933.418 20.738 2.17 29.419 5.258 8.678 3.088 16.272 7.635 22.782 13.646 21.865 19.697 32.799 41.728 32.799 66.097 0 14.356-1.795 27.081-5.384 38.182-3.589 11.1-8.179 20.405-13.771 27.915-5.592 7.51-13.352 13.895-23.284 19.153-9.931 5.258-19.611 9.305-29.042 12.144-9.431 2.837-21.533 5.049-36.304 6.635-14.773 1.586-27.958 2.546-39.559 2.879-11.6.334-26.33.501-44.189.501s-32.589-.167-44.189-.501c-11.6-.333-24.787-1.293-39.558-2.879s-26.872-3.798-36.303-6.635c-9.43-2.839-19.111-6.887-29.042-12.144-9.931-5.257-17.693-11.641-23.284-19.153-5.591-7.511-10.182-16.815-13.77-27.915-3.589-11.101-5.383-23.828-5.383-38.182zM320 336a32 48 2160 1 0 64 0 32 48 2160 1 0-64 0zm-192 0a32 48 2160 1 0 64 0 32 48 2160 1 0-64 0z"/></svg>