<svg xmlns="http://www.w3.org/2000/svg" id="Layer_1" width="512" height="512" viewBox="0 0 512 512"><path d="M217.4 409.4C202.1 424.6 181.8 433 160 433s-42.1-8.4-57.4-23.6c-31.6-31.6-31.6-83.1 0-114.7l73.4-73.4-45.3-45.3-73.4 73.4C.8 306 .8 398 57.4 454.6 84.7 482 121.1 497 160 497s75.3-15 102.6-42.4l73.4-73.4-45.3-45.2-73.3 73.4zm237.2-352C427.3 30 390.9 15 352 15s-75.3 15-102.6 42.4L176 130.7l45.3 45.3 73.4-73.4C309.9 87.4 330.2 79 352 79s42.1 8.4 57.4 23.6c31.6 31.6 31.6 83.1 0 114.7L336 290.7l45.3 45.3 73.4-73.4c56.5-56.6 56.5-148.6-.1-205.2zm-80 125.2l-45.3-45.3-192 192 45.3 45.3 192-192z"/></svg>