<svg id="Layer_1" xmlns="http://www.w3.org/2000/svg" width="512" height="512" viewBox="0 0 512 512"><path d="M32 0v512M64 0v512M96 0v512M128 0v512M160 0v512M192 0v512M224 0v512M256 0v512M288 0v512M320 0v512M352 0v512M384 0v512M416 0v512M448 0v512M480 0v512M0 32h512M0 64h512M0 96h512M0 128h512M0 160h512M0 192h512M0 224h512M0 256h512M0 288h512M0 320h512M0 352h512M0 384h512M0 416h512M0 448h512M0 480h512M0 0h512v512H0z" id="svgGrid" fill="none" stroke="#B35047"/><path d="M502.666 434.783L385.061 317.178C404.672 285.442 416 248.047 416 208 416 93.125 322.875 0 208 0S0 93.125 0 208s93.125 208 208 208c40.047 0 77.442-11.328 109.178-30.939l117.605 117.605c12.445 12.445 32.81 12.445 45.255 0l22.628-22.628c12.445-12.445 12.445-32.81 0-45.255zm-396.489-124.96C78.979 282.625 64 246.464 64 208s14.979-74.625 42.177-101.823C133.375 78.979 169.536 64 208 64s74.625 14.979 101.823 42.177C337.021 133.375 352 169.536 352 208s-14.979 74.625-42.177 101.823C282.625 337.021 246.464 352 208 352s-74.625-14.979-101.823-42.177z"/></svg>