<svg id="Layer_1" xmlns="http://www.w3.org/2000/svg" width="512" height="512" viewBox="0 0 512 512"><path d="M32 0v512M64 0v512M96 0v512M128 0v512M160 0v512M192 0v512M224 0v512M256 0v512M288 0v512M320 0v512M352 0v512M384 0v512M416 0v512M448 0v512M480 0v512M0 32h512M0 64h512M0 96h512M0 128h512M0 160h512M0 192h512M0 224h512M0 256h512M0 288h512M0 320h512M0 352h512M0 384h512M0 416h512M0 448h512M0 480h512M0 0h512v512H0z" id="svgGrid" fill="none" stroke="#B35047"/><path d="M9.3 480L32 502.7c12.4 12.4 32.8 12.4 45.3 0l117.6-117.6C226.6 404.7 264 416 304 416c114.9 0 208-93.1 208-208S418.9 0 304 0 96 93.1 96 208c0 40 11.3 77.4 30.9 109.2L9.3 434.8c-12.4 12.4-12.4 32.8 0 45.2zM304 352c-38.5 0-74.6-15-101.8-42.2S160 246.5 160 208s15-74.6 42.2-101.8S265.5 64 304 64s74.6 15 101.8 42.2S448 169.5 448 208s-15 74.6-42.2 101.8C378.6 337 342.5 352 304 352z"/></svg>