<svg width="512" height="512" viewBox="0 0 512 512" xmlns="http://www.w3.org/2000/svg"><g class="svgGrid" id="svgGrid" stroke="#B35047"><path d="M32 0v512M64 0v512M96 0v512M128 0v512M160 0v512M192 0v512M224 0v512M256 0v512M288 0v512M320 0v512M352 0v512M384 0v512M416 0v512M448 0v512M480 0v512M0 32h512M0 64h512M0 96h512M0 128h512M0 160h512M0 192h512M0 224h512M0 256h512M0 288h512M0 320h512M0 352h512M0 384h512M0 416h512M0 448h512M0 480h512"/><path fill="none" d="M0 0h512v512H0z"/></g><path d="M432 0c44.182 0 80 35.817 80 80 0 18.01-5.955 34.629-16 48l-32 32L352 48l32-32c13.371-10.045 29.989-16 48-16zM32 368L0 512l144-32 296-296L328 72 32 368zm325.789-186.211l-224 224-27.578-27.578 224-224 27.578 27.578z"/></svg>