<svg id="Layer_1" xmlns="http://www.w3.org/2000/svg" width="512" height="512" viewBox="0 0 512 512"><path d="M32 0v512M64 0v512M96 0v512M128 0v512M160 0v512M192 0v512M224 0v512M256 0v512M288 0v512M320 0v512M352 0v512M384 0v512M416 0v512M448 0v512M480 0v512M0 32h512M0 64h512M0 96h512M0 128h512M0 160h512M0 192h512M0 224h512M0 256h512M0 288h512M0 320h512M0 352h512M0 384h512M0 416h512M0 448h512M0 480h512M0 0h512v512H0z" id="svgGrid" fill="none" stroke="#B35047"/><path d="M319.329 364.992c-12.634-2.01-12.922-36.751-12.922-36.751s37.125-36.752 45.216-86.173c21.766 0 35.21-52.541 13.441-71.026.909-19.459 27.977-152.756-109.064-152.756S146.029 151.583 146.935 171.042c-21.768 18.486-8.326 71.026 13.441 71.026 8.09 49.421 45.216 86.173 45.216 86.173s-.288 34.741-12.922 36.751C151.973 371.467 0 438.497 0 512h512c0-73.503-151.973-140.533-192.671-147.008z"/></svg>